<?xml version="1.0" standalone="no"?>
<!DOCTYPE svg PUBLIC "-//W3C//DTD SVG 20010904//EN"
 "http://www.w3.org/TR/2001/REC-SVG-20010904/DTD/svg10.dtd">
<svg version="1.0" xmlns="http://www.w3.org/2000/svg"
 width="64.000000pt" height="64.000000pt" viewBox="0 0 64.000000 64.000000"
 preserveAspectRatio="xMidYMid meet">
<metadata>
Created by potrace 1.16, written by Peter Selinger 2001-2019
</metadata>
<g transform="translate(0.000000,64.000000) scale(0.100000,-0.100000)"
fill="#000000" stroke="none">
<path d="M208 625 c-89 -33 -163 -106 -194 -192 -18 -53 -17 -169 2 -227 14
-41 15 -57 5 -100 -19 -87 -2 -103 88 -86 46 9 64 8 100 -4 62 -23 168 -20
235 4 61 23 123 79 164 149 38 64 43 191 12 274 -29 77 -100 148 -175 176 -65
25 -179 27 -237 6z m172 -36 c186 -42 278 -275 166 -421 -79 -105 -180 -144
-290 -113 -69 19 -117 23 -162 13 l-32 -7 14 51 c11 44 11 55 -2 79 -27 53
-36 124 -24 184 19 93 107 186 197 211 59 16 76 16 133 3z"/>
<path d="M267 473 c-3 -4 -8 -22 -11 -40 -7 -28 -12 -32 -44 -35 -29 -2 -37
-7 -37 -23 0 -15 8 -21 28 -23 21 -3 27 -8 23 -19 -3 -8 -6 -21 -6 -28 0 -8
-13 -15 -32 -17 -25 -2 -33 -8 -33 -23 0 -13 8 -21 22 -23 18 -3 21 -8 16 -36
-10 -61 39 -56 52 5 6 26 10 29 48 29 42 0 42 0 42 -37 0 -52 22 -54 42 -4 13
34 21 41 43 41 30 0 56 23 45 40 -3 5 -19 10 -35 10 -28 0 -29 1 -19 29 8 23
17 31 42 33 24 2 32 8 32 23 0 13 -8 21 -23 23 -20 3 -22 9 -20 40 3 31 0 37
-16 37 -13 0 -23 -11 -31 -35 -11 -32 -16 -35 -53 -38 l-42 -3 3 38 c1 28 -2
38 -15 41 -9 2 -18 -1 -21 -5z"/>
</g>
</svg>
