<svg height="432pt" viewBox="0 -159 432.07999 432" width="432pt" xmlns="http://www.w3.org/2000/svg"><g fill="#00acea"><path d="m432.078125 57.269531c0 31.609375-25.621094 57.230469-57.226563 57.230469-31.609374 0-57.230468-25.621094-57.230468-57.230469 0-31.605469 25.621094-57.2304685 57.230468-57.2304685 31.605469 0 57.226563 25.6249995 57.226563 57.2304685zm0 0"/><path d="m273.269531 57.269531c0 31.609375-25.621093 57.230469-57.230469 57.230469-31.605468 0-57.230468-25.621094-57.230468-57.230469 0-31.605469 25.625-57.2304685 57.230468-57.2304685 31.609376 0 57.230469 25.6249995 57.230469 57.2304685zm0 0"/><path d="m114.460938 57.269531c0 31.609375-25.625 57.230469-57.230469 57.230469-31.609375 0-57.230469-25.621094-57.230469-57.230469 0-31.605469 25.621094-57.2304685 57.230469-57.2304685 31.605469 0 57.230469 25.6249995 57.230469 57.2304685zm0 0"/></g></svg>